<svg width="120" height="120" viewBox="0 0 120 120" fill="none" xmlns="http://www.w3.org/2000/svg">
<g clip-path="url(#clip0_10_18)">
<path d="M119.98 0V119.765H0V0H119.98ZM112.336 49.1579H7.5984V96.5536H112.336V49.1579Z" fill="white"/>
<path d="M47.754 103.029H59.298V104.485H47.754V103.029ZM52.655 101.963H54.28V114.17H52.655V101.963ZM52.252 109.386L53.578 109.932C53.2747 110.365 52.928 110.781 52.538 111.18C52.1567 111.579 51.7407 111.956 51.29 112.311C50.848 112.658 50.3843 112.974 49.899 113.26C49.4223 113.555 48.9413 113.806 48.456 114.014C48.3693 113.884 48.2653 113.737 48.144 113.572C48.0227 113.407 47.8927 113.247 47.754 113.091C47.6153 112.935 47.4897 112.805 47.377 112.701C47.8537 112.536 48.326 112.337 48.794 112.103C49.262 111.86 49.7127 111.596 50.146 111.31C50.5793 111.015 50.9737 110.708 51.329 110.387C51.693 110.058 52.0007 109.724 52.252 109.386ZM54.722 109.438C54.982 109.767 55.294 110.092 55.658 110.413C56.0307 110.725 56.4337 111.028 56.867 111.323C57.309 111.609 57.7683 111.869 58.245 112.103C58.7217 112.328 59.1983 112.523 59.675 112.688C59.5537 112.792 59.4193 112.922 59.272 113.078C59.1333 113.243 58.999 113.407 58.869 113.572C58.7477 113.745 58.6437 113.901 58.557 114.04C58.0717 113.841 57.5907 113.594 57.114 113.299C56.6373 113.013 56.1737 112.697 55.723 112.35C55.281 111.995 54.865 111.618 54.475 111.219C54.0937 110.82 53.7513 110.409 53.448 109.984L54.722 109.438ZM50.367 108.268V109.061H56.672V108.268H50.367ZM50.367 106.396V107.176H56.672V106.396H50.367ZM48.846 105.226H58.271V110.231H48.846V105.226ZM60.741 103.198H72.246V104.693H60.741V103.198ZM65.629 101.95H67.293V103.939H65.629V101.95ZM63.783 106.942V108.437H69.217V106.942H63.783ZM62.223 105.603H70.868V109.789H62.223V105.603ZM68.71 110.959L70.14 110.283C70.4087 110.552 70.6903 110.851 70.985 111.18C71.2883 111.509 71.5743 111.839 71.843 112.168C72.1117 112.489 72.3327 112.779 72.506 113.039L70.959 113.819C70.8203 113.568 70.621 113.277 70.361 112.948C70.1097 112.61 69.8367 112.268 69.542 111.921C69.256 111.574 68.9787 111.254 68.71 110.959ZM65.655 109.243H67.293V112.532C67.293 112.922 67.2453 113.225 67.15 113.442C67.0547 113.659 66.8597 113.823 66.565 113.936C66.279 114.049 65.9367 114.114 65.538 114.131C65.148 114.157 64.693 114.17 64.173 114.17C64.1383 113.936 64.069 113.68 63.965 113.403C63.8697 113.126 63.7743 112.883 63.679 112.675C63.8957 112.684 64.121 112.692 64.355 112.701C64.5977 112.701 64.81 112.701 64.992 112.701C65.1827 112.701 65.3083 112.701 65.369 112.701C65.4817 112.692 65.5553 112.675 65.59 112.649C65.6333 112.623 65.655 112.567 65.655 112.48V109.243ZM62.574 110.296L64.16 110.79C63.952 111.137 63.7093 111.492 63.432 111.856C63.1547 112.211 62.86 112.549 62.548 112.87C62.2447 113.182 61.9413 113.459 61.638 113.702C61.4647 113.555 61.2523 113.39 61.001 113.208C60.7583 113.035 60.546 112.896 60.364 112.792C60.6587 112.575 60.9447 112.328 61.222 112.051C61.508 111.765 61.768 111.47 62.002 111.167C62.2447 110.855 62.4353 110.565 62.574 110.296Z" fill="black"/>
<path d="M24.8809 9.353C24.9936 9.509 25.1106 9.69533 25.2319 9.912C25.3619 10.1287 25.4876 10.3453 25.6089 10.562C25.7302 10.7787 25.8299 10.9693 25.9079 11.134L24.8679 11.576C24.7379 11.3073 24.5776 11.004 24.3869 10.666C24.2049 10.3193 24.0272 10.0203 23.8539 9.769L24.8809 9.353ZM26.4149 8.768C26.5276 8.924 26.6489 9.11467 26.7789 9.34C26.9176 9.55667 27.0476 9.77333 27.1689 9.99C27.2989 10.198 27.3986 10.38 27.4679 10.536L26.4409 10.978C26.3022 10.7007 26.1376 10.393 25.9469 10.055C25.7562 9.717 25.5699 9.42667 25.3879 9.184L26.4149 8.768ZM26.0509 12.213C25.9729 12.3343 25.8949 12.4817 25.8169 12.655C25.7389 12.8197 25.6739 12.9843 25.6219 13.149C25.5092 13.5303 25.3489 13.968 25.1409 14.462C24.9329 14.9473 24.6816 15.45 24.3869 15.97C24.0922 16.49 23.7456 16.997 23.3469 17.491C22.7316 18.2363 22.0079 18.9123 21.1759 19.519C20.3526 20.1257 19.3299 20.6717 18.1079 21.157L16.5739 19.779C17.4579 19.5103 18.2206 19.2113 18.8619 18.882C19.5032 18.544 20.0622 18.18 20.5389 17.79C21.0156 17.4 21.4402 16.9883 21.8129 16.555C22.1076 16.217 22.3806 15.8357 22.6319 15.411C22.8919 14.9863 23.1086 14.5617 23.2819 14.137C23.4639 13.7123 23.5896 13.3397 23.6589 13.019H19.2779L19.8759 11.55C19.9886 11.55 20.1749 11.55 20.4349 11.55C20.6949 11.55 20.9852 11.55 21.3059 11.55C21.6266 11.55 21.9429 11.55 22.2549 11.55C22.5756 11.55 22.8572 11.55 23.0999 11.55C23.3426 11.55 23.5029 11.55 23.5809 11.55C23.7889 11.55 23.9926 11.537 24.1919 11.511C24.3999 11.4763 24.5732 11.4373 24.7119 11.394L26.0509 12.213ZM21.8129 10.159C21.6569 10.3843 21.5052 10.627 21.3579 10.887C21.2106 11.147 21.0979 11.3463 21.0199 11.485C20.7252 12.005 20.3612 12.5467 19.9279 13.11C19.4946 13.6647 19.0049 14.2063 18.4589 14.735C17.9216 15.255 17.3409 15.7317 16.7169 16.165L15.2609 15.073C15.8329 14.7263 16.3356 14.3667 16.7689 13.994C17.2022 13.6213 17.5792 13.253 17.8999 12.889C18.2206 12.5163 18.4979 12.161 18.7319 11.823C18.9659 11.4763 19.1609 11.1643 19.3169 10.887C19.4209 10.731 19.5292 10.523 19.6419 10.263C19.7632 9.99433 19.8499 9.75167 19.9019 9.535L21.8129 10.159ZM30.6529 10.029C30.8349 10.055 31.0516 10.0723 31.3029 10.081C31.5542 10.0897 31.7882 10.094 32.0049 10.094C32.1696 10.094 32.4209 10.094 32.7589 10.094C33.1056 10.094 33.4869 10.094 33.9029 10.094C34.3276 10.094 34.7479 10.094 35.1639 10.094C35.5799 10.094 35.9526 10.094 36.2819 10.094C36.6112 10.094 36.8539 10.094 37.0099 10.094C37.2092 10.094 37.4476 10.0897 37.7249 10.081C38.0022 10.0723 38.2319 10.055 38.4139 10.029V11.706C38.2406 11.6887 38.0152 11.68 37.7379 11.68C37.4692 11.6713 37.2179 11.667 36.9839 11.667C36.8452 11.667 36.6069 11.667 36.2689 11.667C35.9396 11.667 35.5626 11.667 35.1379 11.667C34.7219 11.667 34.3016 11.667 33.8769 11.667C33.4609 11.667 33.0839 11.667 32.7459 11.667C32.4079 11.667 32.1609 11.667 32.0049 11.667C31.7969 11.667 31.5672 11.6713 31.3159 11.68C31.0732 11.6887 30.8522 11.6973 30.6529 11.706V10.029ZM39.5059 13.799C39.4626 13.8857 39.4149 13.981 39.3629 14.085C39.3196 14.189 39.2849 14.2757 39.2589 14.345C39.0596 14.969 38.8082 15.593 38.5049 16.217C38.2102 16.8323 37.8202 17.4087 37.3349 17.946C36.6849 18.674 35.9569 19.2677 35.1509 19.727C34.3449 20.1777 33.5259 20.52 32.6939 20.754L31.4069 19.285C32.3862 19.077 33.2572 18.7737 34.0199 18.375C34.7826 17.9763 35.4109 17.5213 35.9049 17.01C36.2516 16.6547 36.5289 16.282 36.7369 15.892C36.9536 15.4933 37.1226 15.1163 37.2439 14.761C37.1486 14.761 36.9839 14.761 36.7499 14.761C36.5159 14.761 36.2342 14.761 35.9049 14.761C35.5842 14.761 35.2376 14.761 34.8649 14.761C34.4922 14.761 34.1109 14.761 33.7209 14.761C33.3309 14.761 32.9582 14.761 32.6029 14.761C32.2476 14.761 31.9269 14.761 31.6409 14.761C31.3636 14.761 31.1382 14.761 30.9649 14.761C30.8089 14.761 30.5879 14.7653 30.3019 14.774C30.0159 14.7827 29.7342 14.8 29.4569 14.826V13.136C29.7342 13.1533 30.0029 13.1707 30.2629 13.188C30.5316 13.2053 30.7656 13.214 30.9649 13.214C31.0949 13.214 31.2899 13.214 31.5499 13.214C31.8186 13.214 32.1262 13.214 32.4729 13.214C32.8196 13.214 33.1879 13.214 33.5779 13.214C33.9766 13.214 34.3709 13.214 34.7609 13.214C35.1596 13.214 35.5366 13.214 35.8919 13.214C36.2472 13.214 36.5549 13.214 36.8149 13.214C37.0749 13.214 37.2699 13.214 37.3999 13.214C37.6079 13.214 37.7942 13.201 37.9589 13.175C38.1322 13.149 38.2622 13.1187 38.3489 13.084L39.5059 13.799ZM52.3109 11.342C52.2502 11.4633 52.1939 11.6107 52.1419 11.784C52.0986 11.9487 52.0596 12.1047 52.0249 12.252C51.9556 12.564 51.8646 12.9193 51.7519 13.318C51.6392 13.7167 51.5049 14.1283 51.3489 14.553C51.1929 14.9777 51.0066 15.398 50.7899 15.814C50.5819 16.23 50.3436 16.62 50.0749 16.984C49.6849 17.4953 49.2299 17.9807 48.7099 18.44C48.1899 18.8907 47.6092 19.298 46.9679 19.662C46.3266 20.0173 45.6202 20.3207 44.8489 20.572L43.4319 19.025C44.2899 18.817 45.0309 18.5613 45.6549 18.258C46.2876 17.946 46.8379 17.5993 47.3059 17.218C47.7739 16.828 48.1812 16.412 48.5279 15.97C48.8139 15.606 49.0566 15.2117 49.2559 14.787C49.4639 14.3623 49.6329 13.9333 49.7629 13.5C49.9016 13.0667 49.9969 12.668 50.0489 12.304C49.9189 12.304 49.7022 12.304 49.3989 12.304C49.1042 12.304 48.7532 12.304 48.3459 12.304C47.9472 12.304 47.5269 12.304 47.0849 12.304C46.6516 12.304 46.2312 12.304 45.8239 12.304C45.4166 12.304 45.0482 12.304 44.7189 12.304C44.3982 12.304 44.1556 12.304 43.9909 12.304C43.6962 12.304 43.4059 12.3083 43.1199 12.317C42.8426 12.3257 42.6172 12.3387 42.4439 12.356V10.523C42.5826 10.5317 42.7429 10.5447 42.9249 10.562C43.1069 10.5793 43.2976 10.5967 43.4969 10.614C43.6962 10.6227 43.8652 10.627 44.0039 10.627C44.1339 10.627 44.3289 10.627 44.5889 10.627C44.8489 10.627 45.1479 10.627 45.4859 10.627C45.8239 10.627 46.1749 10.627 46.5389 10.627C46.9116 10.627 47.2799 10.627 47.6439 10.627C48.0079 10.627 48.3502 10.627 48.6709 10.627C48.9916 10.627 49.2689 10.627 49.5029 10.627C49.7456 10.627 49.9146 10.627 50.0099 10.627C50.1399 10.627 50.3002 10.6227 50.4909 10.614C50.6816 10.5967 50.8592 10.5663 51.0239 10.523L52.3109 11.342ZM54.891 16.295C55.4543 16.1737 56.0263 16.009 56.607 15.801C57.1963 15.5843 57.7467 15.3547 58.258 15.112C58.7693 14.8607 59.1983 14.6353 59.545 14.436C59.9697 14.176 60.3857 13.8857 60.793 13.565C61.209 13.2357 61.5903 12.9063 61.937 12.577C62.2837 12.2477 62.5653 11.94 62.782 11.654L64.069 12.915C63.8177 13.201 63.484 13.5173 63.068 13.864C62.6607 14.202 62.2187 14.5443 61.742 14.891C61.2653 15.229 60.7887 15.5367 60.312 15.814C60.0173 15.996 59.6793 16.1823 59.298 16.373C58.9167 16.555 58.5137 16.737 58.089 16.919C57.673 17.0923 57.2527 17.257 56.828 17.413C56.412 17.569 56.022 17.7077 55.658 17.829L54.891 16.295ZM59.389 15.45L61.157 15.112V19.74C61.157 19.8873 61.157 20.0563 61.157 20.247C61.1657 20.4377 61.1787 20.611 61.196 20.767C61.2133 20.9317 61.2307 21.0573 61.248 21.144H59.324C59.3413 21.0573 59.35 20.9317 59.35 20.767C59.3587 20.611 59.3673 20.4377 59.376 20.247C59.3847 20.0563 59.389 19.8873 59.389 19.74V15.45ZM73.065 12.278C73.1257 12.4167 73.2037 12.616 73.299 12.876C73.403 13.1273 73.5113 13.4003 73.624 13.695C73.7367 13.981 73.8363 14.254 73.923 14.514C74.0097 14.774 74.079 14.9777 74.131 15.125L72.571 15.671C72.5363 15.5063 72.4757 15.2983 72.389 15.047C72.3023 14.7957 72.207 14.5313 72.103 14.254C71.999 13.968 71.895 13.695 71.791 13.435C71.687 13.175 71.596 12.9583 71.518 12.785L73.065 12.278ZM77.862 13.227C77.7927 13.435 77.732 13.6127 77.68 13.76C77.6367 13.9073 77.5933 14.046 77.55 14.176C77.3853 14.8347 77.16 15.4933 76.874 16.152C76.588 16.802 76.224 17.413 75.782 17.985C75.1753 18.765 74.4863 19.428 73.715 19.974C72.9523 20.5113 72.1897 20.923 71.427 21.209L70.062 19.818C70.5387 19.688 71.0413 19.4973 71.57 19.246C72.0987 18.986 72.61 18.674 73.104 18.31C73.598 17.946 74.0227 17.543 74.378 17.101C74.6727 16.7283 74.9327 16.3037 75.158 15.827C75.392 15.3417 75.5827 14.826 75.73 14.28C75.886 13.7253 75.99 13.1793 76.042 12.642L77.862 13.227ZM70.049 12.967C70.1357 13.1317 70.231 13.344 70.335 13.604C70.4477 13.864 70.5603 14.137 70.673 14.423C70.7857 14.709 70.894 14.9863 70.998 15.255C71.1107 15.5237 71.1973 15.749 71.258 15.931L69.672 16.529C69.62 16.3557 69.542 16.1303 69.438 15.853C69.3427 15.5757 69.2343 15.2853 69.113 14.982C68.9917 14.67 68.8747 14.384 68.762 14.124C68.658 13.864 68.567 13.6647 68.489 13.526L70.049 12.967ZM91.187 11.914C91.1177 12.0353 91.044 12.1827 90.966 12.356C90.888 12.5207 90.8187 12.6853 90.758 12.85C90.6453 13.2313 90.485 13.669 90.277 14.163C90.0777 14.6483 89.8263 15.1553 89.523 15.684C89.2283 16.204 88.886 16.7067 88.496 17.192C87.872 17.9373 87.144 18.6133 86.312 19.22C85.4887 19.8267 84.466 20.3727 83.244 20.858L81.71 19.48C82.594 19.22 83.3567 18.921 83.998 18.583C84.6393 18.245 85.1983 17.8853 85.675 17.504C86.1517 17.114 86.5763 16.7023 86.949 16.269C87.2523 15.931 87.5297 15.5497 87.781 15.125C88.0323 14.6917 88.249 14.2627 88.431 13.838C88.613 13.4133 88.7343 13.0407 88.795 12.72H84.414L85.012 11.251C85.1333 11.251 85.3197 11.251 85.571 11.251C85.831 11.251 86.1213 11.251 86.442 11.251C86.7713 11.251 87.092 11.251 87.404 11.251C87.7247 11.251 88.002 11.251 88.236 11.251C88.4787 11.251 88.6433 11.251 88.73 11.251C88.9293 11.251 89.1287 11.238 89.328 11.212C89.536 11.186 89.7137 11.147 89.861 11.095L91.187 11.914ZM86.949 9.86C86.793 10.0853 86.6413 10.328 86.494 10.588C86.3467 10.848 86.234 11.0473 86.156 11.186C85.8613 11.706 85.4973 12.2477 85.064 12.811C84.6393 13.3657 84.154 13.9073 83.608 14.436C83.062 14.956 82.4813 15.4327 81.866 15.866L80.397 14.787C80.969 14.4317 81.4717 14.0677 81.905 13.695C82.347 13.3223 82.7283 12.954 83.049 12.59C83.3697 12.2173 83.6427 11.862 83.868 11.524C84.102 11.1773 84.3013 10.8697 84.466 10.601C84.57 10.4363 84.6783 10.224 84.791 9.964C84.9037 9.69533 84.9903 9.45267 85.051 9.236L86.949 9.86ZM98.7461 13.396C99.0581 13.396 99.3354 13.474 99.5781 13.63C99.8294 13.7773 100.029 13.9767 100.176 14.228C100.332 14.4707 100.41 14.748 100.41 15.06C100.41 15.3633 100.332 15.6407 100.176 15.892C100.029 16.1433 99.8294 16.347 99.5781 16.503C99.3354 16.6503 99.0581 16.724 98.7461 16.724C98.4428 16.724 98.1654 16.6503 97.9141 16.503C97.6628 16.347 97.4591 16.1433 97.3031 15.892C97.1558 15.6407 97.0821 15.3633 97.0821 15.06C97.0821 14.748 97.1558 14.4707 97.3031 14.228C97.4591 13.9767 97.6628 13.7773 97.9141 13.63C98.1654 13.474 98.4428 13.396 98.7461 13.396ZM44.439 27.912C44.4303 28.094 44.4173 28.2933 44.4 28.51C44.3913 28.718 44.387 28.952 44.387 29.212C44.387 29.4373 44.387 29.7103 44.387 30.031C44.387 30.3517 44.387 30.6723 44.387 30.993C44.387 31.305 44.387 31.5693 44.387 31.786C44.387 32.4793 44.3523 33.086 44.283 33.606C44.2223 34.126 44.127 34.581 43.997 34.971C43.867 35.361 43.7067 35.7077 43.516 36.011C43.334 36.3057 43.1217 36.5873 42.879 36.856C42.593 37.168 42.2637 37.4497 41.891 37.701C41.5183 37.9437 41.1413 38.1473 40.76 38.312C40.3873 38.4853 40.0407 38.624 39.72 38.728L38.355 37.298C39.005 37.1507 39.59 36.947 40.11 36.687C40.6387 36.4183 41.098 36.076 41.488 35.66C41.7133 35.4087 41.8953 35.1573 42.034 34.906C42.1727 34.6547 42.2767 34.3773 42.346 34.074C42.424 33.762 42.476 33.411 42.502 33.021C42.5367 32.631 42.554 32.1847 42.554 31.682C42.554 31.4567 42.554 31.188 42.554 30.876C42.554 30.564 42.554 30.2563 42.554 29.953C42.554 29.6497 42.554 29.4027 42.554 29.212C42.554 28.952 42.5453 28.718 42.528 28.51C42.5193 28.2933 42.502 28.094 42.476 27.912H44.439ZM38.407 28.016C38.3983 28.172 38.3897 28.328 38.381 28.484C38.3723 28.6313 38.368 28.809 38.368 29.017C38.368 29.1123 38.368 29.2683 38.368 29.485C38.368 29.7017 38.368 29.9573 38.368 30.252C38.368 30.538 38.368 30.8413 38.368 31.162C38.368 31.474 38.368 31.7773 38.368 32.072C38.368 32.3667 38.368 32.6353 38.368 32.878C38.368 33.112 38.368 33.2897 38.368 33.411C38.368 33.5757 38.3723 33.7663 38.381 33.983C38.3897 34.1997 38.3983 34.386 38.407 34.542H36.522C36.5307 34.4207 36.5437 34.2473 36.561 34.022C36.5783 33.7967 36.587 33.5887 36.587 33.398C36.587 33.2767 36.587 33.099 36.587 32.865C36.587 32.631 36.587 32.3667 36.587 32.072C36.587 31.7687 36.587 31.461 36.587 31.149C36.587 30.8283 36.587 30.525 36.587 30.239C36.587 29.953 36.587 29.7017 36.587 29.485C36.587 29.2683 36.587 29.1123 36.587 29.017C36.587 28.8957 36.5827 28.7397 36.574 28.549C36.5653 28.3497 36.5523 28.172 36.535 28.016H38.407ZM50.666 36.271C50.666 36.089 50.666 35.829 50.666 35.491C50.666 35.1443 50.666 34.7543 50.666 34.321C50.666 33.879 50.666 33.4197 50.666 32.943C50.666 32.4577 50.666 31.9853 50.666 31.526C50.666 31.058 50.666 30.6247 50.666 30.226C50.666 29.8273 50.666 29.4937 50.666 29.225C50.666 29.0863 50.6617 28.926 50.653 28.744C50.653 28.562 50.6443 28.38 50.627 28.198C50.6097 28.016 50.588 27.86 50.562 27.73H52.499C52.473 27.9293 52.447 28.1763 52.421 28.471C52.395 28.757 52.382 29.0083 52.382 29.225C52.382 29.485 52.382 29.797 52.382 30.161C52.382 30.5163 52.382 30.902 52.382 31.318C52.382 31.7253 52.382 32.1413 52.382 32.566C52.382 32.9907 52.382 33.4067 52.382 33.814C52.382 34.2213 52.382 34.594 52.382 34.932C52.382 35.27 52.382 35.5647 52.382 35.816C52.382 36.076 52.421 36.2883 52.499 36.453C52.577 36.6177 52.733 36.7347 52.967 36.804C53.2097 36.8733 53.5693 36.908 54.046 36.908C54.5053 36.908 54.9647 36.8907 55.424 36.856C55.892 36.8127 56.3557 36.7607 56.815 36.7C57.2743 36.6307 57.7163 36.5527 58.141 36.466L58.089 38.234C57.7337 38.286 57.3307 38.3337 56.88 38.377C56.4293 38.4203 55.9613 38.455 55.476 38.481C54.9993 38.507 54.527 38.52 54.059 38.52C53.3223 38.52 52.7287 38.4723 52.278 38.377C51.8273 38.2903 51.485 38.156 51.251 37.974C51.0257 37.792 50.8697 37.558 50.783 37.272C50.705 36.986 50.666 36.6523 50.666 36.271ZM58.856 30.551C58.7953 30.6463 58.7217 30.7633 58.635 30.902C58.557 31.032 58.4877 31.1533 58.427 31.266C58.2883 31.5347 58.1107 31.838 57.894 32.176C57.686 32.514 57.4607 32.8607 57.218 33.216C56.9753 33.5713 56.724 33.9093 56.464 34.23C56.2127 34.5507 55.97 34.8237 55.736 35.049L54.306 34.204C54.592 33.9527 54.8693 33.6667 55.138 33.346C55.4153 33.0167 55.6623 32.696 55.879 32.384C56.0957 32.0633 56.2647 31.7947 56.386 31.578C56.2647 31.5953 56.0523 31.6387 55.749 31.708C55.4543 31.7687 55.0903 31.8423 54.657 31.929C54.2237 32.0157 53.7513 32.111 53.24 32.215C52.7287 32.3103 52.213 32.41 51.693 32.514C51.173 32.618 50.6703 32.722 50.185 32.826C49.6997 32.9213 49.262 33.0123 48.872 33.099C48.482 33.177 48.17 33.242 47.936 33.294L47.624 31.591C47.8753 31.5563 48.2047 31.5087 48.612 31.448C49.0193 31.3787 49.4743 31.3007 49.977 31.214C50.4797 31.1187 51.004 31.019 51.55 30.915C52.096 30.811 52.6377 30.707 53.175 30.603C53.7123 30.499 54.215 30.4037 54.683 30.317C55.151 30.2217 55.5583 30.1393 55.905 30.07C56.2517 29.992 56.5117 29.9313 56.685 29.888C56.867 29.8447 57.036 29.8013 57.192 29.758C57.348 29.706 57.4867 29.6497 57.608 29.589L58.856 30.551ZM67.436 27.379C67.41 27.6563 67.3883 27.8817 67.371 28.055C67.3537 28.2197 67.345 28.393 67.345 28.575C67.345 28.6877 67.345 28.861 67.345 29.095C67.345 29.329 67.345 29.5717 67.345 29.823C67.345 30.0743 67.345 30.2823 67.345 30.447H65.538C65.538 30.265 65.538 30.0483 65.538 29.797C65.538 29.5457 65.538 29.3073 65.538 29.082C65.538 28.8567 65.538 28.6877 65.538 28.575C65.538 28.393 65.5293 28.2197 65.512 28.055C65.5033 27.8817 65.4773 27.6563 65.434 27.379H67.436ZM71.817 30.122C71.765 30.2607 71.713 30.4383 71.661 30.655C71.6177 30.863 71.583 31.032 71.557 31.162C71.505 31.4653 71.44 31.773 71.362 32.085C71.2927 32.397 71.206 32.709 71.102 33.021C71.0067 33.333 70.894 33.6407 70.764 33.944C70.6427 34.2473 70.504 34.5463 70.348 34.841C70.0013 35.4737 69.5593 36.05 69.022 36.57C68.4933 37.09 67.891 37.532 67.215 37.896C66.539 38.2513 65.8153 38.533 65.044 38.741L63.692 37.181C63.9867 37.129 64.2987 37.0597 64.628 36.973C64.9573 36.8777 65.2563 36.778 65.525 36.674C65.889 36.5353 66.2487 36.362 66.604 36.154C66.968 35.9373 67.3103 35.686 67.631 35.4C67.9517 35.114 68.2333 34.7977 68.476 34.451C68.6927 34.1303 68.879 33.788 69.035 33.424C69.191 33.0513 69.3167 32.67 69.412 32.28C69.5073 31.8813 69.581 31.4913 69.633 31.11H63.185C63.185 31.2227 63.185 31.3657 63.185 31.539C63.185 31.7037 63.185 31.8857 63.185 32.085C63.185 32.2757 63.185 32.4533 63.185 32.618C63.185 32.774 63.185 32.904 63.185 33.008C63.185 33.1553 63.1893 33.32 63.198 33.502C63.2067 33.684 63.2153 33.84 63.224 33.97H61.43C61.4473 33.8053 61.4603 33.6277 61.469 33.437C61.4863 33.2377 61.495 33.0513 61.495 32.878C61.495 32.774 61.495 32.6223 61.495 32.423C61.495 32.2237 61.495 32.0113 61.495 31.786C61.495 31.552 61.495 31.331 61.495 31.123C61.495 30.915 61.495 30.7503 61.495 30.629C61.495 30.4817 61.4907 30.2997 61.482 30.083C61.4733 29.8577 61.456 29.667 61.43 29.511C61.6553 29.537 61.872 29.5543 62.08 29.563C62.288 29.5717 62.5133 29.576 62.756 29.576H69.607C69.8757 29.576 70.0923 29.563 70.257 29.537C70.4303 29.5023 70.5733 29.4677 70.686 29.433L71.817 30.122ZM80.215 28.198C80.1283 28.3887 80.0373 28.6053 79.942 28.848C79.8467 29.082 79.7513 29.3463 79.656 29.641C79.578 29.8837 79.4783 30.1957 79.357 30.577C79.2357 30.9497 79.1013 31.3613 78.954 31.812C78.8067 32.254 78.6507 32.7133 78.486 33.19C78.33 33.658 78.1783 34.113 78.031 34.555C77.8837 34.997 77.745 35.4 77.615 35.764C77.485 36.1193 77.3723 36.4097 77.277 36.635L75.353 36.7C75.4743 36.4227 75.6087 36.0847 75.756 35.686C75.9033 35.2873 76.0593 34.854 76.224 34.386C76.3887 33.9093 76.549 33.424 76.705 32.93C76.8697 32.436 77.0213 31.9593 77.16 31.5C77.3073 31.0407 77.4373 30.616 77.55 30.226C77.6713 29.836 77.7667 29.5197 77.836 29.277C77.9227 28.939 77.9877 28.6617 78.031 28.445C78.083 28.2197 78.122 27.9943 78.148 27.769L80.215 28.198ZM82.542 32.397C82.776 32.7437 83.0273 33.151 83.296 33.619C83.5647 34.087 83.829 34.5767 84.089 35.088C84.3577 35.5907 84.6047 36.076 84.83 36.544C85.0553 37.012 85.2417 37.4323 85.389 37.805L83.634 38.585C83.4867 38.1863 83.3047 37.7357 83.088 37.233C82.88 36.7303 82.6503 36.219 82.399 35.699C82.1563 35.179 81.905 34.6893 81.645 34.23C81.3937 33.762 81.151 33.372 80.917 33.06L82.542 32.397ZM75.236 36.128C75.5307 36.1107 75.886 36.089 76.302 36.063C76.7267 36.0283 77.1817 35.9893 77.667 35.946C78.1523 35.894 78.6463 35.842 79.149 35.79C79.6603 35.738 80.1587 35.686 80.644 35.634C81.138 35.5733 81.5973 35.517 82.022 35.465C82.4467 35.413 82.8063 35.3653 83.101 35.322L83.491 36.986C83.1703 37.0293 82.7847 37.077 82.334 37.129C81.892 37.181 81.4153 37.2373 80.904 37.298C80.3927 37.35 79.8727 37.4063 79.344 37.467C78.8153 37.5277 78.2997 37.584 77.797 37.636C77.2943 37.688 76.8307 37.7357 76.406 37.779C75.9813 37.8137 75.6217 37.8483 75.327 37.883C75.1623 37.9003 74.9673 37.9263 74.742 37.961C74.5253 37.987 74.313 38.013 74.105 38.039L73.806 36.141C74.0227 36.141 74.261 36.141 74.521 36.141C74.7897 36.141 75.028 36.1367 75.236 36.128Z" fill="black"/>
<rect x="0.1" y="49.1" width="119.8" height="47.8" fill="#F48EA9" stroke="black" stroke-width="0.2"/>
</g>
<rect x="0.5" y="0.5" width="119" height="119" stroke="black"/>
<defs>
<clipPath id="clip0_10_18">
<rect width="120" height="120" fill="white"/>
</clipPath>
</defs>
</svg>
