<?xml version="1.0" encoding="UTF-8"?>
<svg id="Layer_2" data-name="Layer 2" xmlns="http://www.w3.org/2000/svg" viewBox="0 0 140.70970202 113.38582623">
  <defs>
    <style>
      .cls-1 {
        fill: #ed1c24;
      }

      .cls-1,
      .cls-2,
      .cls-3,
      .cls-4,
      .cls-5 {
        stroke-width: 0px;
      }

      .cls-2 {
        fill: #2e3192;
      }

      .cls-3 {
        fill: #be1e2d;
      }

      .cls-4 {
        fill: #27aae1;
      }

      .cls-5 {
        fill: #00a651;
      }
    </style>
  </defs>
  <g id="all">
    <g id="logo_3">
      <path class="cls-3"
        d="M108.91690691,5.00637458l31.35922154,50.17475877c.57809817.92495715.5780981,2.09860885-.00000016,3.02356594l-31.35922698,50.174756c-1.94649808,3.11439648-5.3600893,5.00637112-9.03273415,5.00637095l-59.05863827-.0000027c-3.67264489-.00000017-7.08623598-1.89197516-9.03273376-5.00637188L.43357358,58.20469288c-.57809817-.92495715-.5780981-2.09860885.00000016-3.02356594L31.79280073,5.00637095C33.73929881,1.89197447,37.15289003-.00000017,40.82553488,0l59.05863827.0000027c3.67264489.00000017,7.08623598,1.89197516,9.03273376,5.00637188Z" />
      <path class="cls-2"
        d="M27.26897618,29.30942096l39.41555794-21.02163889c2.29394209-1.22343624,5.04667273-1.22343667,7.34061523-.0000012l39.4155663,21.02162617c2.5415412,1.35548805,4.1290969,4.00141311,4.12909746,6.88182618l.00000786,41.00334412c.00000055,2.8804132-1.58755428,5.52633896-4.12909512,6.88182793l-39.41555794,21.02163889c-2.29394209,1.22343624-5.04667273,1.22343667-7.34061523.0000012l-39.4155663-21.02162617c-2.5415412-1.35548805-4.1290969-4.00141311-4.12909746-6.88182618l-.00000786-41.00334412c-.00000055-2.8804132,1.58755428-5.52633896,4.12909512-6.88182793Z" />
      <path class="cls-1"
        d="M27.70250007,76.11866689l-8.96397241-15.52604327c-1.39323016-2.4131435-1.39323119-5.38625948-.00000269-7.79940394l8.96396169-15.52604946c1.39322849-2.41314446,3.96802195-3.89970334,6.7544806-3.89970431l17.9279341-.00000619c2.78645865-.00000096,5.36125314,1.48655614,6.7544833,3.89969964l8.96397241,15.52604327c1.39323016,2.4131435,1.39323119,5.38625948.00000269,7.79940394l-8.96396169,15.52604946c-1.39322849,2.41314446-3.96802195,3.89970334-6.7544806,3.89970431l-17.9279341.00000619c-2.78645865.00000096-5.36125314-1.48655614-6.7544833-3.89969964Z" />
      <circle class="cls-5" cx="52.06154493" cy="49.93082979" r="7.08661417" />
      <circle class="cls-5" cx="97.28876105" cy="57.01744396" r="7.08661417" />
      <path class="cls-4"
        d="M75.02165302,17.99313636l.21799567.16597696c1.28201584.97609782,2.23024666,2.32530529,2.71435865,3.86217456l.1782385.56583864c.47388806,1.50441225.48051194,3.1171523.01899757,4.62540646l-.15350365.5016583c-.47895969,1.56526638-1.43825838,2.94016304-2.74201858,3.92994613l-.12691965.09635432c-1.3648734,1.03617875-3.03301203,1.59400889-4.74663411,1.58728749l-.00000526-.00000002c-1.69640418-.00665387-3.344386-.56622159-4.69411316-1.59387327l-.21799567-.16597696c-1.28201584-.97609782-2.23024666-2.32530529-2.71435865-3.86217456l-.1782385-.56583864c-.47388806-1.50441225-.48051194-3.1171523-.01899757-4.62540646l.15350365-.5016583c.47895969-1.56526638,1.43825838-2.94016304,2.74201858-3.92994613l.12691965-.09635432c1.3648734-1.03617875,3.03301203-1.59400889,4.74663411-1.58728749l.00000526.00000002c1.69640418.00665387,3.344386.56622159,4.69411316,1.59387327Z" />
      <path class="cls-1"
        d="M81.57031876,76.44319773l-8.96397241-15.52604327c-1.39323016-2.4131435-1.39323119-5.38625948-.00000269-7.79940394l8.96396169-15.52604946c1.39322849-2.41314446,3.96802195-3.89970334,6.7544806-3.89970431l17.9279341-.00000619c2.78645865-.00000096,5.36125314,1.48655614,6.7544833,3.89969964l8.96397241,15.52604327c1.39323016,2.4131435,1.39323119,5.38625948.00000269,7.79940394l-8.96396169,15.52604946c-1.39322849,2.41314446-3.96802195,3.89970334-6.7544806,3.89970431l-17.9279341.00000619c-2.78645865.00000096-5.36125314-1.48655614-6.7544833-3.89969964Z" />
      <circle class="cls-5" cx="104.37537522" cy="51.60392146" r="7.08661417" />
    </g>
  </g>
</svg>