<svg width="64px" height="64px" viewBox="0 0 128 128" fill="none" xmlns="http://www.w3.org/2000/svg">
    <path
        d="M24.5281 0.0165305C25.0966 0.0122224 25.6651 0.00791429 26.2508 0.00347566C28.125 -0.0064718 29.9982 0.00667004 31.8723 0.0210078C33.1844 0.0208841 34.4966 0.0196949 35.8087 0.0174916C38.5602 0.0163882 41.3114 0.026392 44.0629 0.0445624C47.5649 0.0670704 51.0664 0.0650463 54.5685 0.0548561C57.281 0.0492667 59.9933 0.0555696 62.7058 0.0654266C63.9954 0.0689941 65.2849 0.0693234 66.5744 0.0661718C78.2779 0.0509713 88.7845 1.11682 97.8813 9.19056C103.667 15.158 105.78 21.2726 106.048 29.5199C105.751 38.6837 102.777 45.8856 96.081 52.2445C92.2707 55.1679 88.2136 57.7133 84.1207 60.218C95.8178 79.012 95.8178 79.012 108.839 96.8962C109.383 97.6116 109.928 98.327 110.489 99.064C114.696 104.218 118.898 106.643 124.91 109.199C127.178 110.451 127.178 110.451 128 112.102C127.975 113.641 127.975 113.641 126.38 115.235C116.103 116.18 106.262 115.249 97.8595 108.797C88.0544 100.332 81.724 87.7407 75.1378 76.7785C74.6826 76.022 74.2273 75.2656 73.7582 74.4863C73.3538 73.8108 72.9494 73.1353 72.5328 72.4393C70.3001 68.635 70.3001 68.635 66.5789 66.5968C67.3763 64.2048 67.3763 64.2048 68.8838 63.3856C69.815 63.0264 69.815 63.0264 70.765 62.6599C78.284 59.7457 81.7873 53.8651 85.1859 46.8592C88.3127 38.887 89.0007 28.6564 85.9147 20.5497C85.3495 19.4034 84.7546 18.2708 84.1207 17.161C83.6438 16.2729 83.1669 15.3849 82.6755 14.4699C78.3213 9.24491 73.1984 8.49581 66.7195 7.74906C60.2371 7.16511 53.6969 7.19738 47.1933 7.0944C45.5887 7.06389 43.9842 7.03274 42.3796 7.00096C38.4859 6.92518 34.5921 6.85791 30.6981 6.79539C30.7062 7.28798 30.7144 7.78057 30.7228 8.28809C30.7292 8.93434 30.7355 9.5806 30.7421 10.2464C30.7502 10.887 30.7584 11.5276 30.7668 12.1876C30.6796 14.4516 30.095 15.9816 29.0037 17.9583C28.647 18.6233 28.2904 19.2883 27.9229 19.9735C26.7116 21.9446 25.3654 23.7391 23.9704 25.583C22.6336 27.5266 21.936 28.5973 21.896 30.9683C22.2828 32.842 22.8207 34.5185 23.5219 36.2974C23.711 36.8278 23.9001 37.3582 24.095 37.9046C25.1084 40.5263 26.1241 42.4988 28.306 44.271C29.9031 44.695 29.9031 44.695 31.6449 44.869C36.1382 45.7486 38.8541 48.0865 41.861 51.4471C44.5536 55.5295 45.5732 59.8189 44.6735 64.6221C43.4208 69.1813 41.9353 73.6286 37.9163 76.4625C35.2124 78.3939 33.3707 79.8416 32.5347 83.1413C32.3686 85.7012 32.3649 88.2026 32.4423 90.7666C32.5504 99.3663 32.1613 107.024 26.4964 113.933C23.7345 116.539 20.8163 117.543 17.0528 117.696C13.2778 117.426 11.0172 116.286 8.3722 113.641C7.13611 111.168 7.34368 109.192 7.57485 106.464C9.13425 103.706 10.1443 102.715 13.1065 101.581C15.5484 101.68 15.5484 101.68 17.7909 103.225C20.0225 106.349 20.1398 108.256 20.3325 112.046C23.7582 109.077 24.8902 106.185 25.3708 101.699C25.3959 100.889 25.4209 100.079 25.4468 99.2447C25.4776 98.3607 25.5084 97.4768 25.5402 96.5661C25.5649 95.6554 25.5895 94.7447 25.615 93.8065C25.6458 92.8773 25.6766 91.9482 25.7084 90.9908C25.7833 88.7069 25.8516 86.4229 25.914 84.1386C25.3242 84.2054 24.7344 84.2722 24.1267 84.341C22.9562 84.4628 22.9562 84.4628 21.7621 84.5871C20.6061 84.712 20.6061 84.712 19.4267 84.8394C14.3207 85.0553 10.4674 83.1773 6.52832 80.0522C1.87799 75.5967 0.244614 71.1511 0 64.753C0.352698 55.5294 4.12208 48.431 8.91727 40.795C9.3584 40.0821 9.3584 40.0821 9.80845 39.3549C10.7643 37.8921 10.7643 37.8921 11.9288 36.3889C13.583 34.1388 14.7495 32.4951 14.7539 29.643C14.3997 27.5961 13.919 25.6387 13.3557 23.6395C11.6859 17.3585 10.6762 11.463 13.3557 5.30035C16.7461 1.1834 19.1763 0.0172225 24.5281 0.0165305ZM18.987 5.44986C16.6438 8.46255 16.8747 11.9337 17.1431 15.5663C17.5739 17.9865 18.121 20.3633 18.7378 22.7424C21.0877 22.995 21.0877 22.995 22.3664 21.7302C25.0887 18.4795 26.8944 14.8556 27.11 10.5828C26.946 7.60263 26.946 7.60263 25.3159 5.59936C23.0217 4.06989 21.275 3.6703 18.987 5.44986ZM20.3325 22.7424C20.3325 25.1345 20.3325 25.1345 20.3325 25.1345V22.7424ZM16.3457 36.2974C6.23574 51.3399 6.23574 51.3399 4.38544 68.9889C5.64995 72.9896 7.50655 76.008 10.3157 79.1053C14.2904 80.5696 14.8237 79.584 18.987 79.1053C21.4164 78.8966 24.3193 79.3545 25.914 80.1518C26.1672 74.9179 25.684 70.0499 24.8176 64.9025C24.7171 64.3034 24.6165 63.7043 24.5129 63.087C23.8232 59.1548 22.9345 55.31 21.9272 51.4471C21.4009 51.4471 20.8747 51.4471 20.3325 51.4471C18.7638 54.0698 18.5429 56.0365 18.5883 59.0718C18.5934 59.8293 18.5986 60.5868 18.6039 61.3673C18.6576 63.5035 18.6576 63.5035 19.5351 65.7995C18.7458 65.7995 17.9564 65.7995 17.1431 65.7995C15.5641 61.4341 14.9809 57.5718 16.3457 53.0418C17.0693 52.2853 17.7929 51.5289 18.5384 50.7495C20.5924 48.4773 20.5924 48.4773 20.1176 46.1273C19.1873 42.6628 18.0218 39.4708 16.3457 36.2974ZM26.7113 48.2577C26.8279 48.7715 26.9445 49.2853 27.0646 49.8147C27.5996 52.185 28.1273 54.5569 28.6549 56.9289C28.8383 57.7368 29.0218 58.5447 29.2108 59.3771C30.3294 64.4348 31.1179 69.4031 31.4954 74.5704C32.2848 74.5704 33.0742 74.5704 33.8875 74.5704C38.5171 66.6763 38.5171 66.6763 38.6716 57.826C37.4142 54.2061 35.8684 50.7918 32.2928 49.0551C30.4358 48.7659 28.5753 48.498 26.7113 48.2577ZM12.359 104.072C11.0125 105.378 11.0125 105.378 9.96691 107.262C10.0232 110.022 10.2478 111.472 12.1098 113.541C14.4287 114.669 14.5061 114.594 17.0528 114.42C17.0528 114.157 18.7378 113.912 18.7378 113.641C17.7909 112.046 17.8501 112.046 17.0528 110.035C17.3159 107.667 16.3457 107.262 15.5484 105.667C14.4959 105.141 13.4434 104.615 12.359 104.072Z"
        fill="#fff" />
    <path
        d="M53.4226 56.6121C53.9489 56.6121 54.4751 56.6121 55.0173 56.6121C55.5436 58.9802 56.0698 61.3483 56.612 63.7882C58.9802 64.0514 61.3483 64.3145 63.7882 64.5856C63.7882 65.1118 63.7882 65.6381 63.7882 66.1803C63.2887 66.279 62.7891 66.3776 62.2745 66.4793C59.4028 67.0466 59.276 67.1261 57.4094 68.1737C56.25 70.3752 55.3067 72.4292 55.0173 74.9512C54.4911 74.9512 53.9648 74.9512 53.4226 74.9512C53.2253 73.4464 53.2253 73.4464 53.0239 71.9113C52.2266 69.3697 52.2266 69.3697 51.4292 68.1737C49.8206 67.591 47.1182 66.5529 45.4491 66.1803C45.4491 65.654 45.4491 65.1278 45.4491 64.5856C47.5541 64.0593 49.6591 63.5331 51.8279 62.9909C52.3542 60.8859 52.8804 58.7809 53.4226 56.6121Z"
        fill="#fff" />
</svg>